HIERARCHY
ROOT joint_0
{
	OFFSET 0.000000 0.000000 0.000000
	CHANNELS 6 Xposition Yposition Zposition Zrotation Yrotation Xrotation 
	JOINT joint_1
	{
		OFFSET 10.084412 4.114712 95.061035
		CHANNELS 3 Zrotation Yrotation Xrotation
		JOINT joint_2
		{
			OFFSET -1.615463 4.243484 87.329956
			CHANNELS 3 Zrotation Yrotation Xrotation
			JOINT joint_3
			{
				OFFSET -3.579636 4.638191 87.154053
				CHANNELS 3 Zrotation Yrotation Xrotation
				JOINT joint_4
				{
					OFFSET 5.443451 7.217075 123.562988
					CHANNELS 3 Zrotation Yrotation Xrotation
					JOINT joint_5
					{
						OFFSET 21.688065 15.141808 90.458008
						CHANNELS 3 Zrotation Yrotation Xrotation
						End Site
						{
							OFFSET 0.000000 0.000000 0.000000
						}
					}
				}
				JOINT joint_6
				{
					OFFSET 3.611374 -22.863556 70.791992
					CHANNELS 3 Zrotation Yrotation Xrotation
					JOINT joint_7
					{
						OFFSET 3.493607 -153.029137 -12.665039
						CHANNELS 3 Zrotation Yrotation Xrotation
						JOINT joint_8
						{
							OFFSET -14.929443 -32.628616 -254.032959
							CHANNELS 3 Zrotation Yrotation Xrotation
							JOINT joint_9
							{
								OFFSET 11.589401 -3.548126 -242.255005
								CHANNELS 3 Zrotation Yrotation Xrotation
								End Site
								{
									OFFSET 0.000000 0.000000 0.000000
								}
							}
						}
					}
				}
				JOINT joint_10
				{
					OFFSET 2.651962 30.943008 67.690918
					CHANNELS 3 Zrotation Yrotation Xrotation
					JOINT joint_11
					{
						OFFSET -6.172562 150.392159 -30.576904
						CHANNELS 3 Zrotation Yrotation Xrotation
						JOINT joint_12
						{
							OFFSET 15.363358 20.741959 -255.254028
							CHANNELS 3 Zrotation Yrotation Xrotation
							JOINT joint_13
							{
								OFFSET 23.282578 -11.086121 -241.182983
								CHANNELS 3 Zrotation Yrotation Xrotation
								End Site
								{
									OFFSET 0.000000 0.000000 0.000000
								}
							}
						}
					}
				}
			}
		}
	}
	JOINT joint_14
	{
		OFFSET -7.080551 -92.910816 -106.291992
		CHANNELS 3 Zrotation Yrotation Xrotation
		JOINT joint_15
		{
			OFFSET -38.248322 -6.001282 -411.906006
			CHANNELS 3 Zrotation Yrotation Xrotation
			JOINT joint_16
			{
				OFFSET -11.189407 -11.244659 -448.150986
				CHANNELS 3 Zrotation Yrotation Xrotation
				JOINT joint_17
				{
					OFFSET 169.870491 -24.631378 -80.352999
					CHANNELS 3 Zrotation Yrotation Xrotation
					End Site
					{
						OFFSET 0.000000 0.000000 0.000000
					}
				}
			}
		}
	}
	JOINT joint_18
	{
		OFFSET -2.796600 85.817772 -112.273987
		CHANNELS 3 Zrotation Yrotation Xrotation
		JOINT joint_19
		{
			OFFSET -44.395859 -8.174402 -411.255005
			CHANNELS 3 Zrotation Yrotation Xrotation
			JOINT joint_20
			{
				OFFSET -25.617508 -5.555587 -447.666992
				CHANNELS 3 Zrotation Yrotation Xrotation
				JOINT joint_21
				{
					OFFSET 163.870811 53.215703 -78.867000
					CHANNELS 3 Zrotation Yrotation Xrotation
					End Site
					{
						OFFSET 0.000000 0.000000 0.000000
					}
				}
			}
		}
	}
}
MOTION
Frames: 18
Frame Time: 0.016667
284.217834 -56.837273 1063.303955 1.136711 1.179889 2.061550 -0.116816 -4.875836 0.398793 -0.428119 0.879084 -0.103168 -0.320317 -1.015377 0.089439 -2.593075 6.362939 6.328639 0.000000 0.000000 0.000000 -1.359160 -1.184416 1.402338 0.832651 -1.507839 -4.955291 0.359570 -2.865254 6.139185 0.000000 0.000000 0.000000 0.743854 -0.105498 -0.753425 0.499855 -0.131520 -0.116493 0.285948 -3.741012 1.210433 0.000000 0.000000 0.000000 3.997338 -5.317873 -3.613350 3.547979 5.424450 0.011944 3.773447 -2.263628 1.454171 0.000000 0.000000 0.000000 -5.417132 -4.093598 3.115421 -5.023054 1.191961 -1.916026 -4.999241 0.495455 -2.565568 0.000000 0.000000 0.000000 
284.273071 -56.781612 1063.292969 1.137297 1.178939 2.063149 -0.116344 -4.885048 0.405268 -0.428338 0.882000 -0.105456 -0.320083 -1.017357 0.091279 -2.593620 6.366317 6.328191 0.000000 0.000000 0.000000 -1.349514 -1.189563 1.421323 0.835580 -1.513690 -4.989569 0.359085 -2.856443 6.132253 0.000000 0.000000 0.000000 0.738410 -0.109333 -0.763992 0.501994 -0.132135 -0.084853 0.285654 -3.744248 1.205294 0.000000 0.000000 0.000000 3.997361 -5.314264 -3.617160 3.548046 5.427323 0.008792 3.773674 -2.266800 1.453833 0.000000 0.000000 0.000000 -5.415409 -4.092987 3.112571 -5.021228 1.198527 -1.920413 -4.997703 0.497854 -2.565616 0.000000 0.000000 0.000000 
284.340179 -56.724388 1063.277954 1.135870 1.179389 2.064405 -0.114676 -4.897809 0.412336 -0.427421 0.884290 -0.105807 -0.318936 -1.019017 0.090855 -2.593958 6.369960 6.326722 0.000000 0.000000 0.000000 -1.341024 -1.193064 1.440310 0.838018 -1.517937 -5.022721 0.358610 -2.849348 6.124821 0.000000 0.000000 0.000000 0.733203 -0.110922 -0.774138 0.504102 -0.130661 -0.055477 0.285851 -3.745359 1.206379 0.000000 0.000000 0.000000 3.998551 -5.316093 -3.623993 3.548361 5.438664 0.011823 3.774928 -2.275945 1.453097 0.000000 0.000000 0.000000 -5.413316 -4.089902 3.111962 -5.018258 1.199430 -1.927812 -4.995296 0.501073 -2.565501 0.000000 0.000000 0.000000 
284.418335 -56.666733 1063.260986 1.132561 1.180700 2.065816 -0.112220 -4.914922 0.419212 -0.425935 0.887656 -0.105595 -0.317064 -1.022356 0.091133 -2.594008 6.376589 6.321849 0.000000 0.000000 0.000000 -1.330316 -1.194235 1.458348 0.839766 -1.519576 -5.054984 0.358003 -2.842807 6.115200 0.000000 0.000000 0.000000 0.729396 -0.110035 -0.785656 0.506105 -0.126993 -0.026926 0.286390 -3.743293 1.212572 0.000000 0.000000 0.000000 4.000466 -5.321865 -3.632773 3.548828 5.456382 0.018529 3.776846 -2.288088 1.452227 0.000000 0.000000 0.000000 -5.410971 -4.084869 3.112290 -5.014622 1.196640 -1.936811 -4.992371 0.505486 -2.565521 0.000000 0.000000 0.000000 
284.496979 -56.604984 1063.240967 1.130713 1.180863 2.066853 -0.110642 -4.931506 0.427847 -0.425289 0.890187 -0.106964 -0.316017 -1.024721 0.092265 -2.593527 6.379273 6.317536 0.000000 0.000000 0.000000 -1.319198 -1.195614 1.476881 0.841683 -1.521453 -5.088849 0.357502 -2.837380 6.107000 0.000000 0.000000 0.000000 0.726924 -0.108165 -0.799370 0.508322 -0.122431 0.002913 0.286914 -3.741933 1.218337 0.000000 0.000000 0.000000 4.001810 -5.326619 -3.641703 3.548660 5.475039 0.025952 3.778242 -2.301351 1.450947 0.000000 0.000000 0.000000 -5.408803 -4.078630 3.112344 -5.011196 1.193592 -1.945171 -4.989602 0.510484 -2.565807 0.000000 0.000000 0.000000 
284.567902 -56.538185 1063.218994 1.134090 1.177936 2.067116 -0.111733 -4.944377 0.438318 -0.427175 0.892565 -0.109405 -0.317484 -1.026451 0.093691 -2.592991 6.378353 6.315854 0.000000 0.000000 0.000000 -1.307876 -1.198735 1.497842 0.844611 -1.525311 -5.128090 0.357318 -2.833180 6.104014 0.000000 0.000000 0.000000 0.726040 -0.106119 -0.816540 0.511079 -0.117585 0.037376 0.287041 -3.744134 1.218304 0.000000 0.000000 0.000000 4.001327 -5.326319 -3.648947 3.547051 5.491064 0.031446 3.778042 -2.314521 1.448933 0.000000 0.000000 0.000000 -5.408411 -4.071805 3.111536 -5.009898 1.193621 -1.951256 -4.988720 0.515828 -2.567122 0.000000 0.000000 0.000000 
284.635071 -56.465832 1063.192993 1.140331 1.172684 2.066754 -0.114326 -4.954364 0.450570 -0.430372 0.893859 -0.112265 -0.320309 -1.027647 0.095481 -2.591730 6.372742 6.314405 0.000000 0.000000 0.000000 -1.295928 -1.202402 1.519328 0.847912 -1.529776 -5.170504 0.357327 -2.830910 6.103865 0.000000 0.000000 0.000000 0.725821 -0.103294 -0.836569 0.514285 -0.111774 0.074820 0.286921 -3.748963 1.214481 0.000000 0.000000 0.000000 3.999664 -5.323210 -3.655565 3.544356 5.507070 0.036787 3.776797 -2.328467 1.446317 0.000000 0.000000 0.000000 -5.408552 -4.063543 3.109817 -5.009374 1.194695 -1.955453 -4.988444 0.521428 -2.568816 0.000000 0.000000 0.000000 
284.701233 -56.393604 1063.166016 1.147101 1.167818 2.065492 -0.117299 -4.967237 0.463669 -0.434235 0.896898 -0.116298 -0.323611 -1.029049 0.098152 -2.590896 6.368622 6.313858 0.000000 0.000000 0.000000 -1.283507 -1.206122 1.541320 0.850887 -1.534219 -5.211635 0.357314 -2.829917 6.102736 0.000000 0.000000 0.000000 0.727563 -0.099422 -0.858435 0.517665 -0.105204 0.112291 0.286897 -3.754569 1.211380 0.000000 0.000000 0.000000 3.997608 -5.320543 -3.660766 3.541459 5.522857 0.041325 3.775287 -2.341523 1.443705 0.000000 0.000000 0.000000 -5.409128 -4.055999 3.109773 -5.009047 1.196007 -1.960648 -4.988424 0.527984 -2.570944 0.000000 0.000000 0.000000 
284.764923 -56.325748 1063.139038 1.152553 1.164268 2.063124 -0.119363 -4.982977 0.476924 -0.437408 0.900510 -0.121273 -0.325999 -1.032705 0.101594 -2.591522 6.371603 6.314461 0.000000 0.000000 0.000000 -1.272074 -1.209007 1.563658 0.852558 -1.537692 -5.246724 0.356851 -2.827874 6.092892 0.000000 0.000000 0.000000 0.728405 -0.094137 -0.881889 0.520859 -0.097101 0.147630 0.287259 -3.757266 1.213694 0.000000 0.000000 0.000000 3.995496 -5.320610 -3.663759 3.538733 5.539512 0.044832 3.773848 -2.350990 1.441644 0.000000 0.000000 0.000000 -5.409228 -4.049597 3.113333 -5.007522 1.196368 -1.969530 -4.987489 0.537049 -2.573440 0.000000 0.000000 0.000000 
284.827911 -56.259991 1063.112061 1.158040 1.161766 2.059788 -0.121207 -5.002462 0.489765 -0.440555 0.904426 -0.124474 -0.328500 -1.035957 0.103791 -2.592803 6.378165 6.315347 0.000000 0.000000 0.000000 -1.260420 -1.211930 1.586826 0.853260 -1.541044 -5.277270 0.355984 -2.824480 6.075358 0.000000 0.000000 0.000000 0.727515 -0.087848 -0.907442 0.524005 -0.087579 0.182743 0.287851 -3.757836 1.219316 0.000000 0.000000 0.000000 3.992703 -5.322368 -3.664901 3.535539 5.556421 0.047466 3.771830 -2.357291 1.439767 0.000000 0.000000 0.000000 -5.409529 -4.044271 3.119620 -5.005684 1.196062 -1.981041 -4.986428 0.548403 -2.576612 0.000000 0.000000 0.000000 
284.886292 -56.189804 1063.083008 1.162773 1.159624 2.056083 -0.122626 -5.020013 0.504215 -0.443223 0.907292 -0.131409 -0.330324 -1.038917 0.108419 -2.594714 6.386539 6.317600 0.000000 0.000000 0.000000 -1.250137 -1.212802 1.609305 0.853343 -1.542436 -5.310091 0.355919 -2.836492 6.069032 0.000000 0.000000 0.000000 0.733637 -0.079949 -0.931564 0.528544 -0.077722 0.216068 0.288529 -3.771915 1.220114 0.000000 0.000000 0.000000 3.990528 -5.323104 -3.666282 3.532987 5.570886 0.049888 3.770431 -2.367394 1.437635 0.000000 0.000000 0.000000 -5.409277 -4.039566 3.125749 -5.003436 1.196069 -1.991594 -4.984893 0.560129 -2.579681 0.000000 0.000000 0.000000 
284.944031 -56.122715 1063.051025 1.166640 1.159066 2.051977 -0.122615 -5.035275 0.516135 -0.444260 0.908133 -0.136531 -0.330870 -1.039192 0.112699 -2.597116 6.395892 6.321123 0.000000 0.000000 0.000000 -1.242516 -1.209878 1.631998 0.852514 -1.540294 -5.348584 0.357339 -2.876403 6.084394 0.000000 0.000000 0.000000 0.752523 -0.072223 -0.947533 0.532547 -0.071668 0.234359 0.289814 -3.790545 1.226137 0.000000 0.000000 0.000000 3.989898 -5.319882 -3.667862 3.532099 5.575988 0.051746 3.770315 -2.382242 1.435436 0.000000 0.000000 0.000000 -5.408568 -4.034177 3.135277 -4.999945 1.191318 -2.005486 -4.982394 0.575342 -2.583411 0.000000 0.000000 0.000000 
285.001343 -56.059734 1063.015015 1.170085 1.160611 2.046785 -0.120695 -5.050384 0.528820 -0.443496 0.908304 -0.144817 -0.329487 -1.038656 0.118775 -2.600550 6.407403 6.327059 0.000000 0.000000 0.000000 -1.239542 -1.203507 1.655288 0.850815 -1.535107 -5.390407 0.359840 -2.937341 6.115072 0.000000 0.000000 0.000000 0.778846 -0.065033 -0.955893 0.535193 -0.068863 0.236941 0.291694 -3.806119 1.240578 0.000000 0.000000 0.000000 3.990176 -5.313873 -3.668513 3.532348 5.572080 0.052806 3.770878 -2.398471 1.433370 0.000000 0.000000 0.000000 -5.407725 -4.028573 3.149433 -4.995325 1.181446 -2.023657 -4.979107 0.594573 -2.588059 0.000000 0.000000 0.000000 
285.043457 -55.950329 1062.978027 1.171359 1.155686 2.045696 -0.121169 -5.055109 0.542697 -0.444218 0.906538 -0.152133 -0.329939 -1.034679 0.123657 -2.602584 6.414068 6.331021 0.000000 0.000000 0.000000 -1.233684 -1.199105 1.671790 0.849732 -1.531573 -5.436442 0.363493 -3.013787 6.162996 0.000000 0.000000 0.000000 0.810459 -0.048801 -0.976321 0.551010 -0.053210 0.283580 0.291563 -3.916186 1.190914 0.000000 0.000000 0.000000 3.991198 -5.306981 -3.677240 3.532514 5.581898 0.055352 3.772779 -2.436891 1.428708 0.000000 0.000000 0.000000 -5.404700 -4.025075 3.141816 -4.993570 1.190263 -2.018217 -4.976892 0.600249 -2.588870 0.000000 0.000000 0.000000 
285.079468 -55.732796 1062.941040 1.170487 1.139212 2.052674 -0.127034 -5.044982 0.559053 -0.449055 0.906626 -0.159915 -0.334321 -1.030400 0.128833 -2.601688 6.411368 6.330169 0.000000 0.000000 0.000000 -1.217138 -1.202321 1.678807 0.853861 -1.535137 -5.495494 0.368269 -3.081614 6.234499 0.000000 0.000000 0.000000 0.842526 -0.031060 -1.030818 0.578092 -0.029672 0.402067 0.288488 -4.094336 1.078831 0.000000 0.000000 0.000000 3.992628 -5.297437 -3.702905 3.531448 5.618013 0.061164 3.776313 -2.521306 1.418134 0.000000 0.000000 0.000000 -5.397841 -4.020296 3.087029 -4.998610 1.225610 -1.960173 -4.977536 0.581956 -2.583387 0.000000 0.000000 0.000000 
285.114929 -55.426571 1062.904053 1.168077 1.114335 2.065593 -0.137476 -5.023197 0.577323 -0.457429 0.906771 -0.167525 -0.342328 -1.024085 0.133322 -2.598849 6.401123 6.327360 0.000000 0.000000 0.000000 -1.189452 -1.211537 1.679969 0.862549 -1.544200 -5.567358 0.374119 -3.143368 6.328426 0.000000 0.000000 0.000000 0.877831 -0.016128 -1.112681 0.610595 -0.005450 0.570783 0.283465 -4.300887 0.933352 0.000000 0.000000 0.000000 3.994402 -5.284433 -3.741843 3.529510 5.671672 0.069321 3.781093 -2.642550 1.402802 0.000000 0.000000 0.000000 -5.387978 -4.013397 2.995277 -5.009012 1.279082 -1.860022 -4.980457 0.545630 -2.573231 0.000000 0.000000 0.000000 
285.067871 -55.152363 1062.864990 1.159190 1.078209 2.083734 -0.145197 -4.984054 0.595972 -0.462002 0.904216 -0.171951 -0.347170 -1.013572 0.134953 -2.594568 6.390933 6.317325 0.000000 0.000000 0.000000 -1.191091 -1.215391 1.662118 0.861219 -1.548533 -5.616193 0.381737 -3.284519 6.426261 0.000000 0.000000 0.000000 0.912876 0.060048 -1.183738 0.700782 0.095267 0.843341 0.271953 -4.953149 0.523301 0.000000 0.000000 0.000000 3.998089 -5.279361 -3.784360 3.528440 5.750742 0.080113 3.787981 -2.758458 1.389181 0.000000 0.000000 0.000000 -5.375529 -4.024778 2.899089 -5.018367 1.382468 -1.764399 -4.982569 0.490236 -2.556459 0.000000 0.000000 0.000000 
284.891541 -55.000008 1062.818970 1.141631 1.031160 2.108667 -0.145396 -4.928323 0.608002 -0.457935 0.896698 -0.169396 -0.344453 -0.997756 0.132306 -2.590750 6.386611 6.302676 0.000000 0.000000 0.000000 -1.251655 -1.242034 1.629729 0.861348 -1.579130 -5.610366 0.384570 -3.337530 6.437483 0.000000 0.000000 0.000000 0.940137 0.207870 -1.280372 0.853620 0.292210 1.356976 0.232656 -6.092425 -0.377659 0.000000 0.000000 0.000000 4.003912 -5.298496 -3.826104 3.528092 5.872977 0.095466 3.797100 -2.844631 1.380807 0.000000 0.000000 0.000000 -5.361813 -4.073653 2.816956 -5.024362 1.563506 -1.701282 -4.983524 0.413136 -2.531967 0.000000 0.000000 0.000000 
